# Blender v2.78 (sub 0) OBJ File: 'shogi_figure.blend'
# www.blender.org
v -0.700000 0.000000 0.735000
v -0.700000 0.300000 0.735000
v -0.630000 -0.000000 -0.535000
v -0.630000 0.300000 -0.535000
v 0.700000 0.000000 0.735000
v 0.700000 0.300000 0.735000
v 0.630000 -0.000000 -0.535000
v 0.630000 0.300000 -0.535000
v 0.000000 -0.000000 -1.035000
v 0.000000 0.300000 -1.035000
vt 0.5709 0.0002
vt 0.6676 0.4094
vt 0.6676 0.0002
vt 0.7739 0.5064
vt 0.5709 0.4098
vt 0.5709 0.5064
vt 0.6679 0.4094
vt 0.7646 0.0002
vt 0.7646 0.4094
vt 0.0002 0.9031
vt 0.4513 0.9998
vt 0.0002 0.9998
vt 0.1613 0.4287
vt 0.5705 0.4513
vt 0.5705 0.0002
vt 0.1613 0.4742
vt 0.5705 0.4517
vt 0.5705 0.9028
vt 0.9769 0.4098
vt 0.9769 0.5064
vt 0.5709 0.4094
vt 0.7739 0.4098
vt 0.6679 0.0002
vt 0.4513 0.9031
vt 0.1613 0.0227
vt 0.0002 0.2257
vt 0.1613 0.8802
vt 0.0002 0.6772
vn -0.9985 0.0000 -0.0550
vn 0.6217 -0.0000 -0.7833
vn 0.9985 0.0000 -0.0550
vn 0.0000 0.0000 1.0000
vn 0.0000 -1.0000 0.0000
vn 0.0000 1.0000 -0.0000
vn -0.6217 -0.0000 -0.7833
s 1
f 2/1/1 3/2/1 1/3/1
f 9/4/2 8/5/2 7/6/2
f 8/7/3 5/8/3 7/9/3
f 6/10/4 1/11/4 5/12/4
f 7/13/5 5/14/5 1/15/5
f 4/16/6 2/17/6 6/18/6
f 4/19/7 9/4/7 3/20/7
f 2/1/1 4/21/1 3/2/1
f 9/4/2 10/22/2 8/5/2
f 8/7/3 6/23/3 5/8/3
f 6/10/4 2/24/4 1/11/4
f 1/15/5 3/25/5 7/13/5
f 9/26/5 7/13/5 3/25/5
f 6/18/6 8/27/6 4/16/6
f 10/28/6 4/16/6 8/27/6
f 4/19/7 10/22/7 9/4/7
